<svg width="20" height="18" viewBox="0 0 20 18" fill="none" xmlns="http://www.w3.org/2000/svg">
<path fill-rule="evenodd" clip-rule="evenodd" d="M4.5 4.83333C4.5 3.4066 5.6566 2.25 7.08333 2.25C8.51007 2.25 9.66667 3.4066 9.66667 4.83333C9.66667 6.26007 8.51007 7.41667 7.08333 7.41667C5.6566 7.41667 4.5 6.26007 4.5 4.83333ZM7.08333 0.75C4.82817 0.75 3 2.57817 3 4.83333C3 7.0885 4.82817 8.91667 7.08333 8.91667C9.3385 8.91667 11.1667 7.0885 11.1667 4.83333C11.1667 2.57817 9.3385 0.75 7.08333 0.75ZM4.16658 10.75C3.08362 10.75 2.04501 11.1802 1.27923 11.946C0.513459 12.7118 0.083252 13.7504 0.083252 14.8333V16.5C0.083252 16.9142 0.419038 17.25 0.833252 17.25C1.24747 17.25 1.58325 16.9142 1.58325 16.5V14.8333C1.58325 14.1482 1.85542 13.4911 2.33989 13.0066C2.82436 12.5222 3.48144 12.25 4.16658 12.25H9.99992C10.6851 12.25 11.3421 12.5222 11.8266 13.0066C12.3111 13.4911 12.5833 14.1482 12.5833 14.8333V16.5C12.5833 16.9142 12.919 17.25 13.3333 17.25C13.7475 17.25 14.0833 16.9142 14.0833 16.5V14.8333C14.0833 13.7504 13.653 12.7118 12.8873 11.946C12.1215 11.1802 11.0829 10.75 9.99992 10.75H4.16658ZM16.6667 4.9165C17.081 4.9165 17.4167 5.25229 17.4167 5.6665V7.4165H19.1667C19.581 7.4165 19.9167 7.75229 19.9167 8.1665C19.9167 8.58072 19.581 8.9165 19.1667 8.9165H17.4167V10.6665C17.4167 11.0807 17.081 11.4165 16.6667 11.4165C16.2525 11.4165 15.9167 11.0807 15.9167 10.6665V8.9165H14.1667C13.7525 8.9165 13.4167 8.58072 13.4167 8.1665C13.4167 7.75229 13.7525 7.4165 14.1667 7.4165H15.9167V5.6665C15.9167 5.25229 16.2525 4.9165 16.6667 4.9165Z" fill="#1D2433" fill-opacity="0.75"/>
</svg>
