<svg width="14" height="14" viewBox="0 0 14 14" fill="none" xmlns="http://www.w3.org/2000/svg">
<path fill-rule="evenodd" clip-rule="evenodd" d="M7.74997 1.16675C7.74997 0.752534 7.41418 0.416748 6.99997 0.416748C6.58576 0.416748 6.24997 0.752534 6.24997 1.16675V6.25H1.16663C0.752412 6.25 0.416626 6.58579 0.416626 7C0.416626 7.41421 0.752412 7.75 1.16663 7.75H6.24997V12.8334C6.24997 13.2476 6.58576 13.5834 6.99997 13.5834C7.41418 13.5834 7.74997 13.2476 7.74997 12.8334V7.75H12.8333C13.2475 7.75 13.5833 7.41421 13.5833 7C13.5833 6.58579 13.2475 6.25 12.8333 6.25H7.74997V1.16675Z" fill="#1D2433" fill-opacity="0.75"/>
</svg>
