<svg width="14" height="14" viewBox="0 0 14 14" fill="none" xmlns="http://www.w3.org/2000/svg">
<path fill-rule="evenodd" clip-rule="evenodd" d="M12.3028 7.53041C12.5957 7.82331 13.0706 7.82331 13.3635 7.53041C13.6564 7.23752 13.6564 6.76264 13.3635 6.46975L7.53365 0.639902C7.52215 0.62825 7.51027 0.616975 7.49803 0.606092C7.36556 0.488302 7.19107 0.416748 6.99986 0.416748C6.90221 0.416748 6.80891 0.435412 6.72335 0.469366C6.63091 0.505961 6.54428 0.561646 6.46951 0.636418L0.636173 6.46975C0.343281 6.76265 0.343281 7.23752 0.636173 7.53041C0.929067 7.82331 1.40394 7.82331 1.69683 7.53041L6.24986 2.97739L6.24986 12.8334C6.24986 13.2476 6.58565 13.5834 6.99986 13.5834C7.41407 13.5834 7.74986 13.2476 7.74986 12.8334L7.74986 2.97743L12.3028 7.53041Z" fill="#1D2433" fill-opacity="0.75"/>
</svg>
