<svg width="12" height="12" viewBox="0 0 12 12" fill="none" xmlns="http://www.w3.org/2000/svg">
<path fill-rule="evenodd" clip-rule="evenodd" d="M11.5893 1.58921C11.9148 1.26378 11.9148 0.736141 11.5893 0.410704C11.2639 0.0852668 10.7363 0.0852668 10.4108 0.410704L6.00008 4.82145L1.58934 0.410704C1.2639 0.0852668 0.736263 0.0852668 0.410826 0.410704C0.0853888 0.736141 0.0853888 1.26378 0.410826 1.58921L4.82157 5.99996L0.410826 10.4107C0.0853888 10.7361 0.0853888 11.2638 0.410826 11.5892C0.736263 11.9147 1.2639 11.9147 1.58934 11.5892L6.00008 7.17847L10.4108 11.5892C10.7363 11.9147 11.2639 11.9147 11.5893 11.5892C11.9148 11.2638 11.9148 10.7361 11.5893 10.4107L7.17859 5.99996L11.5893 1.58921Z" fill="#1D2433" fill-opacity="0.75"/>
</svg>
