<svg width="20" height="18" viewBox="0 0 20 18" fill="none" xmlns="http://www.w3.org/2000/svg">
<path fill-rule="evenodd" clip-rule="evenodd" d="M10.4891 1.37251C9.46287 0.919253 8.34719 0.704708 7.22605 0.745026C6.10491 0.785344 5.00753 1.07948 4.01651 1.60528C3.0255 2.13108 2.16668 2.87484 1.50471 3.78059C0.842734 4.68633 0.394861 5.73044 0.194805 6.83433C-0.00525121 7.93821 0.0477225 9.07309 0.349738 10.1535C0.651754 11.234 1.19494 12.2318 1.93841 13.072C2.21291 13.3822 2.6869 13.4111 2.9971 13.1366C3.30729 12.8621 3.33623 12.3881 3.06173 12.0779C2.46862 11.4077 2.03529 10.6116 1.79436 9.74972C1.55343 8.88779 1.51117 7.98244 1.67076 7.10181C1.83036 6.22119 2.18765 5.38824 2.71574 4.66568C3.24383 3.94313 3.92896 3.34978 4.71954 2.93032C5.51013 2.51086 6.38557 2.27622 7.27996 2.24406C8.17435 2.21189 9.06438 2.38305 9.88306 2.74463C10.7017 3.10622 11.4277 3.64882 12.0063 4.33158C12.585 5.01434 13.0012 5.81947 13.2236 6.68635C13.3087 7.01803 13.6076 7.24994 13.9501 7.24994H15.0007C15.7269 7.24938 16.4345 7.48025 17.0206 7.90906C17.6068 8.33787 18.0411 8.94231 18.2604 9.63466C18.4798 10.327 18.4728 11.0712 18.2405 11.7594C18.0082 12.4475 17.5627 13.0437 16.9687 13.4614C16.6298 13.6997 16.5483 14.1675 16.7866 14.5064C17.0248 14.8452 17.4927 14.9267 17.8315 14.6884C18.6864 14.0873 19.3275 13.2293 19.6617 12.2391C19.996 11.2489 20.006 10.1779 19.6904 9.18161C19.3747 8.1853 18.7498 7.3155 17.9063 6.69843C17.0629 6.08148 16.0444 5.74925 14.9995 5.74994L14.5078 5.74994C14.4594 5.60892 14.4069 5.4695 14.3502 5.33188C14.0563 4.61859 13.6522 3.95352 13.1507 3.36178C12.4253 2.50592 11.5153 1.82577 10.4891 1.37251ZM10.0002 17.25C9.58594 17.25 9.25015 16.9142 9.25015 16.5L9.25015 10.8107L7.19707 12.8638C6.90417 13.1567 6.4293 13.1567 6.13641 12.8638C5.84351 12.5709 5.84351 12.0961 6.13641 11.8032L9.46329 8.47628C9.5995 8.33668 9.7897 8.25 10.0002 8.25C10.2131 8.25 10.4052 8.33871 10.5418 8.48119L13.8637 11.8032C14.1566 12.0961 14.1566 12.5709 13.8637 12.8638C13.5708 13.1567 13.096 13.1567 12.8031 12.8638L10.7502 10.8109L10.7502 16.5C10.7502 16.9142 10.4144 17.25 10.0002 17.25Z" fill="#1D2433" fill-opacity="0.75"/>
</svg>
