<svg width="24" height="24" viewBox="0 0 24 24" fill="none" xmlns="http://www.w3.org/2000/svg">
<path fill-rule="evenodd" clip-rule="evenodd" d="M11.6667 5C10.7462 5 10 5.74619 10 6.66667C10 7.58714 10.7462 8.33333 11.6667 8.33333C12.5871 8.33333 13.3333 7.58714 13.3333 6.66667C13.3333 5.74619 12.5871 5 11.6667 5ZM11.6667 10.3334C10.7462 10.3334 10 11.0796 10 12.0001C10 12.9206 10.7462 13.6668 11.6667 13.6668C12.5871 13.6668 13.3333 12.9206 13.3333 12.0001C13.3333 11.0796 12.5871 10.3334 11.6667 10.3334ZM10 17.8333C10 16.9129 10.7462 16.1667 11.6667 16.1667C12.5871 16.1667 13.3333 16.9129 13.3333 17.8333C13.3333 18.7538 12.5871 19.5 11.6667 19.5C10.7462 19.5 10 18.7538 10 17.8333Z" fill="rgba(29, 36, 51, 0.8)" fill-opacity="0.75"/>
</svg>
