<svg width="20" height="18" viewBox="0 0 20 18" fill="none" xmlns="http://www.w3.org/2000/svg">
<path fill-rule="evenodd" clip-rule="evenodd" d="M0.986298 1.18434C1.10919 0.919469 1.37464 0.75 1.66664 0.75H18.3333C18.6253 0.75 18.8907 0.919469 19.0136 1.18434C19.1365 1.44922 19.0945 1.76134 18.906 1.98429L12.4166 9.65794V16.5C12.4166 16.7599 12.282 17.0013 12.0609 17.138C11.8398 17.2746 11.5637 17.2871 11.3312 17.1708L7.99789 15.5042C7.7438 15.3771 7.5833 15.1174 7.5833 14.8333V9.65794L1.09396 1.98429C0.90541 1.76134 0.863404 1.44922 0.986298 1.18434ZM3.28311 2.25L8.90598 8.89904C9.02048 9.03443 9.0833 9.20602 9.0833 9.38333V14.3698L10.9166 15.2865V9.38333C10.9166 9.20602 10.9795 9.03443 11.094 8.89904L16.7168 2.25H3.28311Z" fill="#1D2433" fill-opacity="0.75"/>
</svg>
