<svg width="16" height="15" viewBox="0 0 16 15" fill="none" xmlns="http://www.w3.org/2000/svg">
<path fill-rule="evenodd" clip-rule="evenodd" d="M2.16667 0H13.8333C14.75 0 15.5 0.75 15.5 1.66667V13.3333C15.5 14.25 14.75 15 13.8333 15H2.16667C1.25 15 0.5 14.25 0.5 13.3333V1.66667C0.5 0.75 1.25 0 2.16667 0ZM11.3333 8.33333H4.66667C4.20643 8.33333 3.83333 7.96024 3.83333 7.5C3.83333 7.03976 4.20643 6.66667 4.66667 6.66667H11.3333C11.7936 6.66667 12.1667 7.03976 12.1667 7.5C12.1667 7.96024 11.7936 8.33333 11.3333 8.33333Z" fill="#3D94F6"/>
</svg>
