<svg width="12" height="12" viewBox="0 0 12 12" fill="none" xmlns="http://www.w3.org/2000/svg">
<path fill-rule="evenodd" clip-rule="evenodd" d="M6.62497 1.13898C6.62497 0.793799 6.34515 0.513977 5.99997 0.513977C5.6548 0.513977 5.37497 0.793799 5.37497 1.13898V5.37502H1.13885C0.793677 5.37502 0.513855 5.65484 0.513855 6.00002C0.513855 6.3452 0.793677 6.62502 1.13885 6.62502H5.37497V10.8612C5.37497 11.2064 5.6548 11.4862 5.99997 11.4862C6.34515 11.4862 6.62497 11.2064 6.62497 10.8612V6.62502H10.8611C11.2063 6.62502 11.4861 6.3452 11.4861 6.00002C11.4861 5.65484 11.2063 5.37502 10.8611 5.37502H6.62497V1.13898Z" fill="white" fill-opacity="0.75"/>
</svg>
