<svg width="17" height="17" viewBox="0 0 17 17" fill="none" xmlns="http://www.w3.org/2000/svg">
<path fill-rule="evenodd" clip-rule="evenodd" d="M1.75 6.5C1.75 3.87665 3.87665 1.75 6.5 1.75C9.12335 1.75 11.25 3.87665 11.25 6.5C11.25 9.12335 9.12335 11.25 6.5 11.25C3.87665 11.25 1.75 9.12335 1.75 6.5ZM6.5 0.25C3.04822 0.25 0.25 3.04822 0.25 6.5C0.25 9.95178 3.04822 12.75 6.5 12.75C7.96156 12.75 9.30595 12.2483 10.3703 11.4078C10.3985 11.4512 10.4316 11.4923 10.4697 11.5303L15.4697 16.5303C15.7626 16.8232 16.2374 16.8232 16.5303 16.5303C16.8232 16.2374 16.8232 15.7626 16.5303 15.4697L11.5303 10.4697C11.4923 10.4316 11.4512 10.3985 11.4078 10.3703C12.2483 9.30595 12.75 7.96156 12.75 6.5C12.75 3.04822 9.95178 0.25 6.5 0.25Z" fill="#1D2433" fill-opacity="0.75"/>
</svg>
